<?xml version="1.0" encoding="utf-8"?>
<!-- Generator: Adobe Illustrator 15.0.0, SVG Export Plug-In . SVG Version: 6.00 Build 0)  -->
<!DOCTYPE svg PUBLIC "-//W3C//DTD SVG 1.1//EN" "http://www.w3.org/Graphics/SVG/1.1/DTD/svg11.dtd">
<svg version="1.1" id="レイヤー_1" xmlns="http://www.w3.org/2000/svg" xmlns:xlink="http://www.w3.org/1999/xlink" x="0px"
	 y="0px" width="5924.41px" height="2383.939px" viewBox="0 0 5924.41 2383.939" enable-background="new 0 0 5924.41 2383.939"
	 xml:space="preserve">
<g>
	<path d="M17.962,32.967c-1.332-1.332-6.479-6.803-9.071-9.935c-2.7-3.275-5.328-6.839-5.328-11.663
		c0-4.067,3.132-7.307,7.019-7.307c3.456,0,6.263,2.016,7.415,5.651h0.036c1.188-3.815,4.104-5.651,7.415-5.651
		c3.888,0,7.019,3.239,7.019,7.307c0,4.824-2.627,8.387-5.327,11.663c-2.592,3.132-7.775,8.603-9.107,9.935H17.962z M17.242,11.586
		c-0.792-4.428-3.6-6.228-6.659-6.228c-3.491,0-5.723,2.952-5.723,6.011c0,4.464,2.484,7.811,5.111,10.907
		c2.34,2.88,6.767,7.595,8.027,8.855h0.036c1.26-1.26,5.651-5.975,8.027-8.855c2.592-3.096,5.111-6.443,5.111-10.907
		c0-3.131-2.304-6.011-5.723-6.011c-3.06,0-5.867,1.8-6.659,6.228H17.242z"/>
</g>
</svg>
